<?xml version="1.0" encoding="utf-8"?>
<!-- Generator: Adobe Illustrator 15.0.2, SVG Export Plug-In  -->
<!DOCTYPE svg PUBLIC "-//W3C//DTD SVG 1.1//EN" "http://www.w3.org/Graphics/SVG/1.1/DTD/svg11.dtd" [
	<!ENTITY ns_flows "http://ns.adobe.com/Flows/1.0/">
]>
<svg version="1.1"
	 xmlns="http://www.w3.org/2000/svg" xmlns:xlink="http://www.w3.org/1999/xlink" xmlns:a="http://ns.adobe.com/AdobeSVGViewerExtensions/3.0/"
	 x="0px" y="0px" width="200px" height="22px" viewBox="-1 -1.154 200 22"
	 overflow="visible" enable-background="new -1 -1.154 200 22" xml:space="preserve">
<defs>
</defs>
<path fill="#FFFFFF" d="M55.111,18.669c-2.387,0.481-4.17,0.514-5.463,0.514c-3.768,0-8.116-1.513-8.116-5.765
	c0-4.231,3.744-5.862,8.923-5.862c0.931,0,2.896,0.083,4.27,0.501l-0.305,2.446c-1.172-0.547-2.546-0.724-3.438-0.724
	c-3.056,0-5.566,1.015-5.566,3.639c0,2.206,1.965,3.541,4.715,3.541c0.506,0,0.995-0.061,1.335-0.189v-2.226h-2.202V12.42h5.848
	V18.669z"/>
<path fill="#FFFFFF" d="M68.442,18.988h-3.319v-1.545h-0.042c-0.727,1.208-2.188,1.739-3.845,1.739
	c-2.873,0-4.027-1.609-4.027-3.349v-5.23h3.644v4.054c0,1.579,0.688,2.112,1.677,2.112c1.5,0,2.27-0.82,2.27-2.63v-3.536h3.642
	V18.988z"/>
<path fill="#FFFFFF" d="M73.48,15.641c0.198,1.157,1.312,1.607,3.093,1.607c0.993,0,2.126-0.178,3.219-0.639v2.042
	c-1.175,0.369-2.51,0.531-3.863,0.531c-3.484,0-6.133-1.625-6.133-4.395c0-2.774,2.367-4.384,5.644-4.384
	c3.908,0,5.324,2.211,5.324,4.702v0.534H73.48z M77.486,13.997c0-0.965-0.569-1.755-2.026-1.755c-1.313,0-1.941,0.79-2.022,1.755
	H77.486z"/>
<path fill="#FFFFFF" d="M82.459,16.671c0.849,0.288,2.104,0.577,3.421,0.577c0.748,0,1.477-0.094,1.477-0.678
	c0-1.41-5.185-0.414-5.185-3.44c0-1.934,2.392-2.726,4.497-2.726c1.255,0,2.53,0.114,3.703,0.487l-0.284,2.011
	c-0.77-0.369-1.923-0.562-2.835-0.562c-0.785,0-1.676,0.111-1.676,0.58c0,1.304,5.423,0.272,5.423,3.459
	c0,2.241-2.532,2.804-4.917,2.804c-1.638,0-2.753-0.131-3.827-0.403L82.459,16.671z"/>
<path fill="#FFFFFF" d="M91.845,10.604h2.147V8.718l3.582-0.886v2.771h2.549v2.026h-2.549v3.091c0,1.014,0.303,1.527,1.457,1.527
	c0.366,0,0.749-0.062,1.112-0.111l0.123,1.884c-0.688,0.063-1.375,0.162-2.287,0.162c-3.259,0-4.047-1.145-4.047-3.141V12.63h-2.087
	V10.604z"/>
<path fill="#FFFFFF" d="M108.032,7.75h6.719c2.514,0,4.553,0.902,4.553,2.835c0,1.497-0.89,2.494-2.712,2.833v0.031
	c1.216,0.258,1.296,1.112,2.006,2.48l1.375,3.059h-3.926l-0.812-2.029c-0.769-1.931-1.256-2.415-2.649-2.415h-0.79v4.444h-3.764
	V7.75z M111.796,12.42h0.992c1.215,0,2.754-0.031,2.754-1.308c0-1.043-1.317-1.236-2.754-1.236h-0.992V12.42z"/>
<path fill="#FFFFFF" d="M124.22,15.641c0.202,1.157,1.316,1.607,3.096,1.607c0.992,0,2.123-0.178,3.218-0.639v2.042
	c-1.174,0.369-2.51,0.531-3.867,0.531c-3.479,0-6.133-1.625-6.133-4.395c0-2.774,2.371-4.384,5.649-4.384
	c3.905,0,5.319,2.211,5.319,4.702v0.534H124.22z M128.225,13.997c0-0.965-0.565-1.755-2.024-1.755c-1.312,0-1.939,0.79-2.023,1.755
	H128.225z"/>
<path fill="#FFFFFF" d="M131.642,10.604h3.807l1.7,6.037h0.037l1.822-6.037h4.371l1.783,6.037h0.04l1.654-6.037h3.522l-3.215,8.385
	h-4.231l-1.78-6.068h-0.038l-2.006,6.068h-4.228L131.642,10.604z"/>
<path fill="#FFFFFF" d="M158.187,18.988c-0.02-0.448-0.082-0.885-0.082-1.318h-0.04c-0.828,1.044-1.842,1.513-3.34,1.513
	c-2.083,0-3.945-0.821-3.945-2.642c0-2.561,3.502-2.865,5.443-2.865c0.588,0,1.236,0.049,1.702,0.114
	c-0.023-1.141-1.092-1.45-2.409-1.45c-1.173,0-2.345,0.175-3.359,0.627l-0.062-1.963c1.299-0.419,2.651-0.6,4.211-0.6
	c2.688,0,5.02,0.92,5.02,3.481v3.124c0,0.66,0.04,1.32,0.199,1.979H158.187z M155.678,17.248c1.377,0,2.247-0.996,2.247-1.979
	c-0.466-0.015-0.995-0.048-1.538-0.048c-1.233,0-2.206,0.304-2.206,1.113C154.181,16.914,154.827,17.248,155.678,17.248z"/>
<path fill="#FFFFFF" d="M171.178,12.92c-0.405-0.097-0.811-0.097-1.236-0.097c-1.7,0-2.648,0.982-2.648,2.626v3.539h-3.647v-8.385
	h3.324v1.541h0.039c0.626-1.06,1.534-1.74,3.115-1.74c0.423,0,0.87,0.051,1.234,0.099L171.178,12.92z"/>
<path fill="#FFFFFF" d="M183.604,18.988h-3.359v-1.496h-0.041c-0.467,0.933-1.944,1.69-3.621,1.69c-3.138,0-4.82-2.062-4.82-4.543
	c0-2.057,1.6-4.235,4.517-4.235c1.459,0,2.689,0.311,3.622,1.277h0.038V6.915h3.665V18.988z M177.737,16.959
	c1.211,0,2.225-0.917,2.225-2.142c0-1.27-0.891-2.188-2.225-2.188c-1.419,0-2.21,0.969-2.21,2.076
	C175.527,16.042,176.357,16.959,177.737,16.959z"/>
<path fill="#FFFFFF" d="M185.582,16.671c0.851,0.288,2.104,0.577,3.421,0.577c0.748,0,1.476-0.094,1.476-0.678
	c0-1.41-5.179-0.414-5.179-3.44c0-1.934,2.386-2.726,4.489-2.726c1.255,0,2.533,0.114,3.707,0.487l-0.283,2.011
	c-0.771-0.369-1.927-0.562-2.833-0.562c-0.791,0-1.681,0.111-1.681,0.58c0,1.304,5.425,0.272,5.425,3.459
	c0,2.241-2.531,2.804-4.921,2.804c-1.639,0-2.75-0.131-3.826-0.403L185.582,16.671z"/>
<path fill="#FFFFFF" d="M73.351,4.901l-0.738-3.085l-1.755,3.085h-2.094L66.99,1.816l-0.737,3.085h-2.202l1.444-4.788h2.436
	l1.883,3.276l1.888-3.276h2.409l1.45,4.788H73.351z"/>
<path fill="#FFFFFF" d="M56.859,0.113l-3.251,4.788h2.194l0.494-0.825h3.396l0.492,0.825h2.423l-3.252-4.788H56.859z M56.85,3.146
	l1.144-1.922l1.146,1.922H56.85z"/>
<path fill="#FFFFFF" d="M99.231,0.113l-3.25,4.788h2.196l0.492-0.825h3.404l0.487,0.825h2.426l-3.254-4.788H99.231z M99.228,3.146
	l1.143-1.922l1.146,1.922H99.228z"/>
<path fill="#FFFFFF" d="M111.707,4.901l-2.619-2.258v2.258h-2.244V0.113h2.244v2.096l2.612-2.096h2.721l-3.011,2.291l3.221,2.497
	H111.707z"/>
<path fill="#FFFFFF" d="M91.92,4.901h2.529l-1.675-1.832c0.93-0.229,1.317-0.778,1.317-1.407c0-0.729-0.518-1.127-1.26-1.331
	c-0.766-0.207-1.787-0.218-2.752-0.218c-1.866,0-3.432,0-3.432,0v4.788h2.217V3.468h1.917L91.92,4.901z M88.865,1.063
	c0,0,1.045,0,1.403,0c1.139,0,1.606,0.221,1.606,0.704c0,0.392-0.31,0.631-0.694,0.719c-0.288,0.061-0.545,0.075-0.996,0.075
	c-0.349,0-1.318,0-1.318,0V1.063z"/>
<path fill="#FFFFFF" d="M81.724,1.215v3.686h-2.256V1.215h-2.895l0.246-1.102h7.838L84.41,1.215H81.724z"/>
<path fill-rule="evenodd" clip-rule="evenodd" fill="#FFFFFF" d="M27.976,0.747C24.703,0.596,7.603,0.163,0,3.451
	C2.05,4.67,4.254,5.933,6.846,7.303c7.542-3.53,17.322-4.809,26.316-5.298V1.776C31.415,1.563,29.483,1.191,27.976,0.747z
	 M35.663,2.133c-6.755,0.669-18.705,2.633-25.506,6.866c2.473,1.246,5.061,2.482,7.647,3.626c7.165-6.102,16.646-8.81,26.308-10.713
	v-0.22C41.66,1.976,37.95,2.157,35.663,2.133z M21.364,14.161c3.264,1.353,6.646,2.588,9.517,3.421
	c3.47-6.892,9.736-12.348,21.286-17.354V0C37.335,4.05,28.042,6.96,21.364,14.161z"/>
<path fill="#FFFFFF" d="M195.176,12.34c0-0.923,0.754-1.675,1.679-1.675c0.924,0,1.676,0.752,1.676,1.675s-0.752,1.679-1.676,1.679
	C195.93,14.019,195.176,13.263,195.176,12.34z M198.12,12.34c0-0.782-0.566-1.354-1.266-1.354c-0.702,0-1.269,0.571-1.269,1.354
	c0,0.785,0.566,1.351,1.269,1.351C197.554,13.69,198.12,13.125,198.12,12.34z M196.21,11.386h0.708c0.45,0,0.695,0.157,0.695,0.558
	c0,0.328-0.187,0.481-0.493,0.51l0.51,0.832h-0.364l-0.491-0.819h-0.212v0.819h-0.353V11.386z M196.562,12.193h0.309
	c0.211,0,0.392-0.023,0.392-0.282c0-0.219-0.204-0.257-0.385-0.257h-0.315V12.193z"/>
</svg>
